<svg width="13" height="13" viewBox="0 0 13 13" fill="none" xmlns="http://www.w3.org/2000/svg">
<path d="M7.39961 1.2001C7.39961 1.04097 7.33639 0.888355 7.22387 0.775834C7.11135 0.663312 6.95874 0.600098 6.79961 0.600098C6.64048 0.600098 6.48787 0.663312 6.37535 0.775834C6.26282 0.888355 6.19961 1.04097 6.19961 1.2001V6.2001H1.19961C1.04048 6.2001 0.887867 6.26331 0.775345 6.37583C0.662823 6.48836 0.599609 6.64097 0.599609 6.8001C0.599609 6.95923 0.662823 7.11184 0.775345 7.22436C0.887867 7.33688 1.04048 7.4001 1.19961 7.4001H6.19961V12.4001C6.19961 12.5592 6.26282 12.7118 6.37535 12.8244C6.48787 12.9369 6.64048 13.0001 6.79961 13.0001C6.95874 13.0001 7.11135 12.9369 7.22387 12.8244C7.33639 12.7118 7.39961 12.5592 7.39961 12.4001V7.4001H12.3996C12.5587 7.4001 12.7114 7.33688 12.8239 7.22436C12.9364 7.11184 12.9996 6.95923 12.9996 6.8001C12.9996 6.64097 12.9364 6.48836 12.8239 6.37583C12.7114 6.26331 12.5587 6.2001 12.3996 6.2001H7.39961V1.2001Z" fill="#4DB027"/>
</svg>
