<svg width="19" height="19" viewBox="0 0 19 19" fill="none" xmlns="http://www.w3.org/2000/svg">
<path d="M3.90978 10.656C3.47339 10.0928 2.87953 9.67183 2.20352 9.44651L0.458005 8.87911C0.323994 8.83141 0.208029 8.74342 0.126026 8.6272C0.0440226 8.51099 0 8.37225 0 8.23002C0 8.08779 0.0440226 7.94905 0.126026 7.83283C0.208029 7.71662 0.323994 7.62862 0.458005 7.58093L2.20352 7.01353C2.72004 6.83518 3.18914 6.54153 3.57521 6.15486C3.96128 5.76819 4.25417 5.29867 4.43166 4.78192L4.44559 4.73886L5.01308 2.99486C5.06025 2.85999 5.14819 2.74313 5.26473 2.66044C5.38127 2.57775 5.52063 2.53333 5.66353 2.53333C5.80643 2.53333 5.94579 2.57775 6.06233 2.66044C6.17886 2.74313 6.26681 2.85999 6.31398 2.99486L6.8802 4.73886C7.0572 5.26895 7.3553 5.75051 7.75085 6.14535C8.14641 6.54019 8.62854 6.83744 9.159 7.01353L10.9033 7.58093L10.9387 7.58979C11.0727 7.63749 11.1887 7.72548 11.2707 7.8417C11.3527 7.95791 11.3967 8.09666 11.3967 8.23888C11.3967 8.38111 11.3527 8.51985 11.2707 8.63607C11.1887 8.75229 11.0727 8.84028 10.9387 8.88797L9.1932 9.45538C8.66297 9.63163 8.18109 9.92896 7.78577 10.3238C7.39044 10.7186 7.09254 11.2001 6.91567 11.73L6.34818 13.474L6.33172 13.5171C6.27698 13.6445 6.18506 13.7525 6.06796 13.8269C5.95087 13.9012 5.81406 13.9385 5.67542 13.9339C5.53678 13.9292 5.40277 13.8828 5.29093 13.8008C5.17908 13.7187 5.09461 13.6049 5.04854 13.474L4.48106 11.73C4.35431 11.3419 4.1602 10.9786 3.90978 10.656ZM13.6583 15.4701L12.688 15.156C12.3936 15.0576 12.1261 14.892 11.9067 14.6724C11.6873 14.4528 11.522 14.1852 11.4239 13.8907L11.1072 12.9231C11.081 12.8483 11.0321 12.7835 10.9675 12.7376C10.9028 12.6918 10.8255 12.6671 10.7462 12.6671C10.6669 12.6671 10.5896 12.6918 10.5249 12.7376C10.4602 12.7835 10.4114 12.8483 10.3852 12.9231L10.071 13.8907C9.97468 14.1833 9.81208 14.4497 9.59588 14.6692C9.37968 14.8886 9.11573 15.0552 8.82459 15.156L7.85556 15.4701C7.78074 15.4963 7.71591 15.5451 7.67005 15.6098C7.62419 15.6744 7.59955 15.7518 7.59955 15.831C7.59955 15.9103 7.62419 15.9876 7.67005 16.0523C7.71591 16.117 7.78074 16.1658 7.85556 16.192L8.82459 16.5074C9.11989 16.6058 9.38815 16.7718 9.60805 16.9921C9.82794 17.2124 9.99341 17.481 10.0913 17.7764L10.4054 18.744C10.4317 18.8188 10.4805 18.8837 10.5452 18.9295C10.6098 18.9754 10.6872 19 10.7664 19C10.8457 19 10.9231 18.9754 10.9877 18.9295C11.0524 18.8837 11.1012 18.8188 11.1275 18.744L11.4429 17.7764C11.5411 17.4818 11.7066 17.2141 11.9263 16.9945C12.1459 16.7749 12.4136 16.6094 12.7083 16.5112L13.6773 16.1971C13.7522 16.1708 13.817 16.122 13.8628 16.0574C13.9087 15.9927 13.9333 15.9154 13.9333 15.8361C13.9333 15.7568 13.9087 15.6795 13.8628 15.6148C13.817 15.5502 13.7522 15.5014 13.6773 15.4751L13.6583 15.4701Z" fill="black"/>
<path d="M17.5057 2.98649L18.67 3.36339L18.6928 3.36947C18.7826 3.40093 18.8604 3.45951 18.9154 3.53711C18.9704 3.6147 19 3.70747 19 3.8026C19 3.89772 18.9704 3.9905 18.9154 4.06809C18.8604 4.14569 18.7826 4.20426 18.6928 4.23573L17.53 4.61263C17.1764 4.73053 16.8552 4.92909 16.5916 5.1926C16.3281 5.45612 16.1295 5.77735 16.0116 6.13087L15.6331 7.29197C15.6016 7.38174 15.543 7.45951 15.4654 7.51454C15.3878 7.56956 15.295 7.59912 15.1999 7.59912C15.1047 7.59912 15.012 7.56956 14.9344 7.51454C14.8568 7.45951 14.7982 7.38174 14.7667 7.29197L14.3897 6.13087C14.2723 5.77634 14.0737 5.45409 13.8099 5.18974C13.546 4.92539 13.2241 4.72622 12.8698 4.60807L11.707 4.22965C11.6172 4.19819 11.5394 4.13961 11.4844 4.06201C11.4293 3.98442 11.3998 3.89164 11.3998 3.79652C11.3998 3.7014 11.4293 3.60862 11.4844 3.53103C11.5394 3.45343 11.6172 3.39485 11.707 3.36339L12.8698 2.98649C13.2191 2.8656 13.5358 2.66569 13.7953 2.40235C14.0547 2.13901 14.2498 1.81934 14.3654 1.46825L14.7424 0.30715C14.7738 0.217381 14.8324 0.139607 14.91 0.0845815C14.9876 0.0295564 15.0804 0 15.1756 0C15.2707 0 15.3635 0.0295564 15.4411 0.0845815C15.5187 0.139607 15.5773 0.217381 15.6088 0.30715L15.9888 1.46825C16.1065 1.82161 16.3049 2.14273 16.5682 2.40624C16.8314 2.66974 17.1524 2.86839 17.5057 2.98649Z" fill="black"/>
</svg>
