<svg width="20" height="20" viewBox="0 0 20 20" fill="none" xmlns="http://www.w3.org/2000/svg">
<path d="M5.75815 10.5465C5.39449 10.0772 4.89961 9.72636 4.33627 9.5386L2.88167 9.06576C2.76999 9.02602 2.67336 8.95269 2.60502 8.85584C2.53669 8.75899 2.5 8.64338 2.5 8.52485C2.5 8.40633 2.53669 8.29071 2.60502 8.19386C2.67336 8.09702 2.76999 8.02369 2.88167 7.98394L4.33627 7.51111C4.7667 7.36249 5.15762 7.11778 5.47934 6.79555C5.80106 6.47333 6.04514 6.08206 6.19305 5.65144L6.20466 5.61555L6.67756 4.16222C6.71688 4.04983 6.79016 3.95244 6.88728 3.88354C6.98439 3.81463 7.10052 3.77761 7.21961 3.77761C7.33869 3.77761 7.45482 3.81463 7.55194 3.88354C7.64905 3.95244 7.72234 4.04983 7.76165 4.16222L8.2335 5.61555C8.381 6.0573 8.62941 6.4586 8.95904 6.78763C9.28867 7.11666 9.69045 7.36437 10.1325 7.51111L11.586 7.98394L11.6156 7.99133C11.7273 8.03108 11.8239 8.1044 11.8923 8.20125C11.9606 8.2981 11.9973 8.41372 11.9973 8.53224C11.9973 8.65076 11.9606 8.76638 11.8923 8.86323C11.8239 8.96008 11.7273 9.0334 11.6156 9.07315L10.161 9.54598C9.71914 9.69286 9.31758 9.94063 8.98814 10.2697C8.6587 10.5987 8.41045 10.9999 8.26306 11.4415L7.79015 12.8949L7.77643 12.9308C7.73082 13.037 7.65422 13.1269 7.55664 13.1889C7.45906 13.2509 7.34505 13.2819 7.22951 13.2781C7.11398 13.2742 7.00231 13.2355 6.90911 13.1672C6.8159 13.0988 6.7455 13.0039 6.70712 12.8949L6.23422 11.4415C6.12859 11.1181 5.96684 10.8153 5.75815 10.5465ZM13.8819 14.5582L13.0734 14.2965C12.828 14.2145 12.6051 14.0765 12.4223 13.8935C12.2394 13.7105 12.1017 13.4875 12.0199 13.2421L11.756 12.4358C11.7341 12.3734 11.6934 12.3194 11.6396 12.2812C11.5857 12.243 11.5212 12.2225 11.4552 12.2225C11.3891 12.2225 11.3246 12.243 11.2707 12.2812C11.2169 12.3194 11.1762 12.3734 11.1543 12.4358L10.8925 13.2421C10.8122 13.4859 10.6767 13.7079 10.4966 13.8908C10.3164 14.0737 10.0964 14.2125 9.85383 14.2965L9.0463 14.5582C8.98395 14.5801 8.92993 14.6208 8.89171 14.6747C8.85349 14.7285 8.83296 14.793 8.83296 14.859C8.83296 14.9251 8.85349 14.9895 8.89171 15.0434C8.92993 15.0973 8.98395 15.138 9.0463 15.1598L9.85383 15.4226C10.0999 15.5047 10.3235 15.643 10.5067 15.8266C10.6899 16.0102 10.8278 16.234 10.9094 16.4802L11.1712 17.2865C11.1931 17.3489 11.2337 17.4029 11.2876 17.4411C11.3415 17.4793 11.406 17.4998 11.472 17.4998C11.5381 17.4998 11.6025 17.4793 11.6564 17.4411C11.7103 17.4029 11.751 17.3489 11.7729 17.2865L12.0357 16.4802C12.1176 16.2347 12.2555 16.0116 12.4386 15.8286C12.6216 15.6456 12.8447 15.5077 13.0903 15.4258L13.8978 15.1641C13.9601 15.1422 14.0142 15.1015 14.0524 15.0476C14.0906 14.9937 14.1111 14.9293 14.1111 14.8633C14.1111 14.7972 14.0906 14.7328 14.0524 14.6789C14.0142 14.625 13.9601 14.5843 13.8978 14.5625L13.8819 14.5582Z" fill="black"/>
<path d="M17.0881 4.15524L18.0583 4.46933L18.0773 4.47439C18.1522 4.50061 18.217 4.54943 18.2628 4.61409C18.3087 4.67876 18.3333 4.75607 18.3333 4.83534C18.3333 4.91461 18.3087 4.99192 18.2628 5.05658C18.217 5.12124 18.1522 5.17006 18.0773 5.19628L17.1083 5.51036C16.8137 5.60861 16.546 5.77408 16.3263 5.99367C16.1067 6.21327 15.9412 6.48096 15.843 6.77556L15.5276 7.74314C15.5013 7.81795 15.4525 7.88276 15.3878 7.92862C15.3232 7.97447 15.2459 7.9991 15.1666 7.9991C15.0873 7.9991 15.01 7.97447 14.9453 7.92862C14.8806 7.88276 14.8318 7.81795 14.8056 7.74314L14.4914 6.77556C14.3936 6.48012 14.2281 6.21158 14.0082 5.99129C13.7883 5.771 13.5201 5.60502 13.2248 5.50656L12.2558 5.19121C12.181 5.16499 12.1162 5.11618 12.0703 5.05151C12.0244 4.98685 11.9998 4.90954 11.9998 4.83027C11.9998 4.751 12.0244 4.67369 12.0703 4.60903C12.1162 4.54436 12.181 4.49555 12.2558 4.46933L13.2248 4.15524C13.5159 4.0545 13.7799 3.88792 13.9961 3.66846C14.2122 3.44901 14.3748 3.18262 14.4712 2.89004L14.7853 1.92246C14.8115 1.84765 14.8604 1.78284 14.925 1.73699C14.9897 1.69113 15.067 1.6665 15.1463 1.6665C15.2256 1.6665 15.3029 1.69113 15.3676 1.73699C15.4323 1.78284 15.4811 1.84765 15.5073 1.92246L15.824 2.89004C15.9221 3.18451 16.0874 3.45212 16.3068 3.6717C16.5262 3.89128 16.7937 4.05683 17.0881 4.15524Z" fill="black"/>
</svg>
