<svg width="20" height="20" viewBox="0 0 20 20" fill="none" xmlns="http://www.w3.org/2000/svg">
<path d="M3.57797 6.91066C3.73425 6.75443 3.94617 6.66667 4.16714 6.66667C4.38811 6.66667 4.60003 6.75443 4.75631 6.91066L10.0005 12.1548L15.2446 6.91066C15.3215 6.83107 15.4135 6.76758 15.5151 6.72391C15.6168 6.68023 15.7262 6.65724 15.8368 6.65628C15.9475 6.65532 16.0572 6.6764 16.1596 6.71831C16.262 6.76021 16.3551 6.82208 16.4333 6.90033C16.5115 6.97857 16.5734 7.07161 16.6153 7.17403C16.6572 7.27644 16.6783 7.38617 16.6773 7.49682C16.6764 7.60747 16.6534 7.71682 16.6097 7.81849C16.566 7.92016 16.5026 8.01212 16.423 8.08899L10.5896 13.9223C10.4334 14.0785 10.2214 14.1663 10.0005 14.1663C9.7795 14.1663 9.56758 14.0785 9.41131 13.9223L3.57797 8.08899C3.42175 7.93272 3.33398 7.72079 3.33398 7.49982C3.33398 7.27885 3.42175 7.06693 3.57797 6.91066Z" fill="black"/>
</svg>
