<svg width="16" height="16" viewBox="0 0 16 16" fill="none" xmlns="http://www.w3.org/2000/svg">
<path d="M7.04391 2.06121C7.13196 1.88265 7.26823 1.73229 7.4373 1.62716C7.60637 1.52203 7.80148 1.46631 8.00058 1.46631C8.19967 1.46631 8.39478 1.52203 8.56385 1.62716C8.73292 1.73229 8.86919 1.88265 8.95724 2.06121L10.4399 5.06387L13.7546 5.54521C13.9516 5.57382 14.1367 5.65701 14.2889 5.78538C14.4412 5.91374 14.5544 6.08214 14.6159 6.27153C14.6773 6.46092 14.6846 6.66373 14.6367 6.85701C14.5889 7.0503 14.4879 7.22633 14.3452 7.36521L11.9466 9.70254L12.5132 13.0039C12.5469 13.2 12.5251 13.4016 12.4503 13.5859C12.3754 13.7703 12.2504 13.93 12.0896 14.0471C11.9287 14.1642 11.7382 14.2339 11.5398 14.2484C11.3413 14.2629 11.1428 14.2216 10.9666 14.1292L7.99991 12.5692L5.03457 14.1292C4.85836 14.2216 4.65981 14.2629 4.46137 14.2484C4.26292 14.2339 4.07249 14.1642 3.9116 14.0471C3.7507 13.93 3.62576 13.7703 3.55089 13.5859C3.47602 13.4016 3.4542 13.2 3.48791 13.0039L4.05324 9.70254L1.65457 7.36521C1.51186 7.22625 1.41091 7.0501 1.36315 6.85672C1.31539 6.66334 1.32273 6.46045 1.38434 6.27102C1.44596 6.0816 1.55938 5.91322 1.71177 5.78494C1.86416 5.65666 2.04942 5.57361 2.24657 5.54521L5.56124 5.06521L7.04391 2.06121Z" fill="black"/>
</svg>
